REM DIRINDEX 1\2\3,1\2\4,1\2\5,1\2\6
REM DIRNAME folder01,folder02,folder03,folder04,folder05,folder06
TITLE ""
FILE "130 130.mp3" MP3
  TRACK 01 AUDIO
    TITLE "0:"
    INDEX 01 00:00:00
  TRACK 02 AUDIO
    TITLE "3:cjc157_4866"
    INDEX 01 00:00:11
  TRACK 03 AUDIO
    TITLE "0:"
    INDEX 01 00:01:42
  TRACK 04 AUDIO
    TITLE "4:cjc157_4867"
    INDEX 01 00:02:12
  TRACK 05 AUDIO
    TITLE "0:"
    INDEX 01 00:05:09
  TRACK 06 AUDIO
    TITLE "5:cjc157_4868"
    INDEX 01 00:05:54
  TRACK 07 AUDIO
    TITLE "0:"
    INDEX 01 00:07:56
  TRACK 08 AUDIO
    TITLE "3:cjc157_4869"
    INDEX 01 00:08:26
  TRACK 09 AUDIO
    TITLE "0:"
    INDEX 01 00:09:59
  TRACK 10 AUDIO
    TITLE "4:cjc157_4870"
    INDEX 01 00:10:29
  TRACK 11 AUDIO
    TITLE "0:"
    INDEX 01 00:11:70
  TRACK 12 AUDIO
    TITLE "5:cjc157_4871"
    INDEX 01 00:12:38
  TRACK 13 AUDIO
    TITLE "0:"
    INDEX 01 00:15:32
  TRACK 14 AUDIO
    TITLE "5:cjc157_4872"
    INDEX 01 00:16:04
  TRACK 15 AUDIO
    TITLE "0:"
    INDEX 01 00:18:27
  TRACK 16 AUDIO
    TITLE "3:cjc157_4873"
    INDEX 01 00:19:03
  TRACK 17 AUDIO
    TITLE "0:"
    INDEX 01 00:20:28
  TRACK 18 AUDIO
    TITLE "4:cjc157_4874"
    INDEX 01 00:20:69
  TRACK 19 AUDIO
    TITLE "0:"
    INDEX 01 00:22:03
  TRACK 20 AUDIO
    TITLE "5:cjc157_4875"
    INDEX 01 00:22:52
  TRACK 21 AUDIO
    TITLE "0:"
    INDEX 01 00:24:53
  TRACK 22 AUDIO
    TITLE "5:cjc157_4876"
    INDEX 01 00:25:23
  TRACK 23 AUDIO
    TITLE "0:"
    INDEX 01 00:27:14
  TRACK 24 AUDIO
    TITLE "3:cjc157_4877"
    INDEX 01 00:27:63
  TRACK 25 AUDIO
    TITLE "0:"
    INDEX 01 00:29:19
  TRACK 26 AUDIO
    TITLE "4:cjc157_4878"
    INDEX 01 00:29:62
  TRACK 27 AUDIO
    TITLE "0:"
    INDEX 01 00:30:67
  TRACK 28 AUDIO
    TITLE "5:cjc157_4879"
    INDEX 01 00:31:41
  TRACK 29 AUDIO
    TITLE "0:"
    INDEX 01 00:33:03
  TRACK 30 AUDIO
    TITLE "5:cjc157_4880"
    INDEX 01 00:33:48
  TRACK 31 AUDIO
    TITLE "0:"
    INDEX 01 00:35:21
  TRACK 32 AUDIO
    TITLE "3:cjc157_4881"
    INDEX 01 00:35:66
  TRACK 33 AUDIO
    TITLE "0:"
    INDEX 01 00:37:14
  TRACK 34 AUDIO
    TITLE "4:cjc157_4882"
    INDEX 01 00:37:61
  TRACK 35 AUDIO
    TITLE "0:"
    INDEX 01 00:39:05
  TRACK 36 AUDIO
    TITLE "5:cjc157_4883"
    INDEX 01 00:39:51
  TRACK 37 AUDIO
    TITLE "0:"
    INDEX 01 00:42:25
  TRACK 38 AUDIO
    TITLE "3:cjc157_4884"
    INDEX 01 00:42:74
  TRACK 39 AUDIO
    TITLE "0:"
    INDEX 01 00:44:14
  TRACK 40 AUDIO
    TITLE "4:cjc157_4885"
    INDEX 01 00:44:60
  TRACK 41 AUDIO
    TITLE "0:"
    INDEX 01 00:45:69
  TRACK 42 AUDIO
    TITLE "5:cjc157_4886"
    INDEX 01 00:46:41
  TRACK 43 AUDIO
    TITLE "0:"
    INDEX 01 00:48:34
  TRACK 44 AUDIO
    TITLE "3:cjc157_4887"
    INDEX 01 00:49:02
  TRACK 45 AUDIO
    TITLE "0:"
    INDEX 01 00:50:70
  TRACK 46 AUDIO
    TITLE "4:cjc157_4888"
    INDEX 01 00:51:38
  TRACK 47 AUDIO
    TITLE "0:"
    INDEX 01 00:52:49
  TRACK 48 AUDIO
    TITLE "5:cjc157_4889"
    INDEX 01 00:53:23
  TRACK 49 AUDIO
    TITLE "0:"
    INDEX 01 00:55:48
  TRACK 50 AUDIO
    TITLE "5:cjc157_4890"
    INDEX 01 00:56:18
  TRACK 51 AUDIO
    TITLE "0:"
    INDEX 01 00:58:01
  TRACK 52 AUDIO
    TITLE "3:cjc157_4891"
    INDEX 01 00:58:48
  TRACK 53 AUDIO
    TITLE "0:"
    INDEX 01 01:00:47
  TRACK 54 AUDIO
    TITLE "4:cjc157_4892"
    INDEX 01 01:01:13
  TRACK 55 AUDIO
    TITLE "0:"
    INDEX 01 01:02:20
  TRACK 56 AUDIO
    TITLE "5:cjc157_4893"
    INDEX 01 01:02:65
  TRACK 57 AUDIO
    TITLE "0:"
    INDEX 01 01:04:60
  TRACK 58 AUDIO
    TITLE "5:cjc157_4894"
    INDEX 01 01:05:30
  TRACK 59 AUDIO
    TITLE "0:"
    INDEX 01 01:07:04
  TRACK 60 AUDIO
    TITLE "5:cjc157_4895"
    INDEX 01 01:07:53
  TRACK 61 AUDIO
    TITLE "0:"
    INDEX 01 01:09:36
  TRACK 62 AUDIO
    TITLE "3:cjc157_4896"
    INDEX 01 01:10:18
  TRACK 63 AUDIO
    TITLE "0:"
    INDEX 01 01:12:07
  TRACK 64 AUDIO
    TITLE "4:cjc157_4897"
    INDEX 01 01:12:52
  TRACK 65 AUDIO
    TITLE "0:"
    INDEX 01 01:14:02
  TRACK 66 AUDIO
    TITLE "5:cjc157_4898"
    INDEX 01 01:14:43
  TRACK 67 AUDIO
    TITLE "0:"
    INDEX 01 01:17:10
  TRACK 68 AUDIO
    TITLE "3:cjc157_4899"
    INDEX 01 01:17:55
  TRACK 69 AUDIO
    TITLE "0:"
    INDEX 01 01:19:03
  TRACK 70 AUDIO
    TITLE "4:cjc157_4900"
    INDEX 01 01:19:50
  TRACK 71 AUDIO
    TITLE "0:"
    INDEX 01 01:20:63
  TRACK 72 AUDIO
    TITLE "5:cjc157_4901"
    INDEX 01 01:21:33
  TRACK 73 AUDIO
    TITLE "0:"
    INDEX 01 01:23:26
  TRACK 74 AUDIO
    TITLE "5:cjc157_4902"
    INDEX 01 01:23:73
  TRACK 75 AUDIO
    TITLE "0:"
    INDEX 01 01:26:36
